# xmcd
#
# Track frame offsets: 
#        150
#        12319
#        27617
#        37452
#        48087
#        58556
#        68583
#        79787
#        88526
#        98404
#        109810
#        121698
#        132816
#        143391
#        154613
#        167864
#        176461
#        186169
#        196141
#        205226
#        215830
#        227245
#
# Disc length: 3216 seconds
#
# Revision: 1
# Processed by: cddbd v1.5.2PL0 Copyright (c) Steve Scherf et al.
# Submitted via: ExactAudioCopy v1.0b1
#
DISCID=270c8e16
DTITLE=Holloway, Brenda - The Early Years: Rare Recordings 1962 - 1963
DYEAR=1900
DGENRE=R&B
TTITLE0=Constant Love
TTITLE1=Suddenly
TTITLE2=Game Of Love
TTITLE3=Hey Fool
TTITLE4=BRENDA HOLLOWAY and JESS HARRIS I Never Knew You Looked So Good 
TTITLE4=Until I Quit You
TTITLE5=THE SOUL MATES I Want A Boyfriend (Girlfriend)
TTITLE6=I'll Give My Life
TTITLE7=BRENDA HOLLOWAY and THE CARROLLS I Ain't Gonna Take You Back
TTITLE8=BRENDA HOLLOWAY and JESS HARRIS Gonna Make You Mine
TTITLE9=HAL and BRENDA Unless I Have You
TTITLE10=Candy DEMO
TTITLE11=Echo
TTITLE12=THE SOUL MATES I Get A Feeling
TTITLE13=HAL and BRENDA It's You
TTITLE14=He's Gone DEMO
TTITLE15=THE FOUR J'S The Nursery
TTITLE16=THE FOUR J'S Will You Be My Love
TTITLE17=THE WATESIANS I Told You Baby
TTITLE18=THE WATESIANS I'll Find Myself A Guy
TTITLE19=PATRICE HOLLOWAY Do The Del Viking (Part 1)
TTITLE20=BRENDA HOLLOWAY and THE CARROLLS You're My Only Love
TTITLE21=Every Little Bit Hurts DEMO
EXTD=
EXTT0=
EXTT1=
EXTT2=
EXTT3=
EXTT4=
EXTT5=
EXTT6=
EXTT7=
EXTT8=
EXTT9=
EXTT10=
EXTT11=
EXTT12=
EXTT13=
EXTT14=
EXTT15=
EXTT16=
EXTT17=
EXTT18=
EXTT19=
EXTT20=
EXTT21=
PLAYORDER=
